<?xml version="1.0" encoding="UTF-8" standalone="no"?>
<svg width="143px" height="168px" viewBox="0 0 143 168" version="1.1" xmlns="http://www.w3.org/2000/svg" xmlns:xlink="http://www.w3.org/1999/xlink" xmlns:sketch="http://www.bohemiancoding.com/sketch/ns">
    <!-- Generator: Sketch 3.1.1 (8761) - http://www.bohemiancoding.com/sketch -->
    <title>Untitled 2</title>
    <desc>Created with Sketch.</desc>
    <defs>
        <linearGradient x1="-1.39984178%" y1="49.9735222%" x2="101.499215%" y2="49.9735222%" id="linearGradient-1">
            <stop stop-color="#ED1458" offset="0%"></stop>
            <stop stop-color="#ED1C24" offset="100%"></stop>
        </linearGradient>
        <linearGradient x1="0.0315555556%" y1="50.1191111%" x2="100.005778%" y2="50.1191111%" id="linearGradient-2">
            <stop stop-color="#ED1458" offset="0%"></stop>
            <stop stop-color="#ED1C24" offset="100%"></stop>
        </linearGradient>
        <linearGradient x1="-0.128888889%" y1="49.8453333%" x2="99.8537778%" y2="49.8453333%" id="linearGradient-3">
            <stop stop-color="#ED1458" offset="0%"></stop>
            <stop stop-color="#ED1C24" offset="100%"></stop>
        </linearGradient>
        <linearGradient x1="0.170666667%" y1="49.8453333%" x2="100.14%" y2="49.8453333%" id="linearGradient-4">
            <stop stop-color="#ED1458" offset="0%"></stop>
            <stop stop-color="#ED1C24" offset="100%"></stop>
        </linearGradient>
        <linearGradient x1="0.170666667%" y1="50.1191111%" x2="100.14%" y2="50.1191111%" id="linearGradient-5">
            <stop stop-color="#ED1458" offset="0%"></stop>
            <stop stop-color="#ED1C24" offset="100%"></stop>
        </linearGradient>
        <linearGradient x1="-0.133333333%" y1="49.9315556%" x2="99.8448889%" y2="49.9315556%" id="linearGradient-6">
            <stop stop-color="#ED1458" offset="0%"></stop>
            <stop stop-color="#ED1C24" offset="100%"></stop>
        </linearGradient>
        <linearGradient x1="0.150666667%" y1="50.1044444%" x2="100.133333%" y2="50.1044444%" id="linearGradient-7">
            <stop stop-color="#ED1458" offset="0%"></stop>
            <stop stop-color="#ED1C24" offset="100%"></stop>
        </linearGradient>
        <linearGradient x1="0.00577777778%" y1="50.1044444%" x2="99.9711111%" y2="50.1044444%" id="linearGradient-8">
            <stop stop-color="#ED1458" offset="0%"></stop>
            <stop stop-color="#ED1C24" offset="100%"></stop>
        </linearGradient>
        <linearGradient x1="0.00577777778%" y1="49.9315556%" x2="99.9711111%" y2="49.9315556%" id="linearGradient-9">
            <stop stop-color="#ED1458" offset="0%"></stop>
            <stop stop-color="#ED1C24" offset="100%"></stop>
        </linearGradient>
        <linearGradient x1="-0.068%" y1="50.1191111%" x2="99.9102222%" y2="50.1191111%" id="linearGradient-10">
            <stop stop-color="#ED1458" offset="0%"></stop>
            <stop stop-color="#ED1C24" offset="100%"></stop>
        </linearGradient>
        <linearGradient x1="0.215555556%" y1="49.8453333%" x2="100.202667%" y2="49.8453333%" id="linearGradient-11">
            <stop stop-color="#ED1458" offset="0%"></stop>
            <stop stop-color="#ED1C24" offset="100%"></stop>
        </linearGradient>
        <linearGradient x1="0.0706666667%" y1="49.8453333%" x2="100.036%" y2="49.8453333%" id="linearGradient-12">
            <stop stop-color="#ED1458" offset="0%"></stop>
            <stop stop-color="#ED1C24" offset="100%"></stop>
        </linearGradient>
        <linearGradient x1="0.0706666667%" y1="50.1191111%" x2="100.036%" y2="50.1191111%" id="linearGradient-13">
            <stop stop-color="#ED1458" offset="0%"></stop>
            <stop stop-color="#ED1C24" offset="100%"></stop>
        </linearGradient>
        <linearGradient x1="-0.0488888889%" y1="49.9315556%" x2="99.9293333%" y2="49.9315556%" id="linearGradient-14">
            <stop stop-color="#ED1458" offset="0%"></stop>
            <stop stop-color="#ED1C24" offset="100%"></stop>
        </linearGradient>
        <linearGradient x1="-0.20625%" y1="50.1044444%" x2="100.218304%" y2="50.1044444%" id="linearGradient-15">
            <stop stop-color="#ED1458" offset="0%"></stop>
            <stop stop-color="#ED1C24" offset="100%"></stop>
        </linearGradient>
        <linearGradient x1="0.0897777778%" y1="50.1044444%" x2="100.059556%" y2="50.1044444%" id="linearGradient-16">
            <stop stop-color="#ED1458" offset="0%"></stop>
            <stop stop-color="#ED1C24" offset="100%"></stop>
        </linearGradient>
        <linearGradient x1="0.0897777778%" y1="49.9315556%" x2="100.059556%" y2="49.9315556%" id="linearGradient-17">
            <stop stop-color="#ED1458" offset="0%"></stop>
            <stop stop-color="#ED1C24" offset="100%"></stop>
        </linearGradient>
    </defs>
    <g id="Page-1" stroke="none" stroke-width="1" fill="none" fill-rule="evenodd" sketch:type="MSPage">
        <path d="M128.8,2.8 L14.2,2.8 C7.6,2.8 2.2,8.2 2.2,14.8 L2.2,129.1 C2.2,135.7 7.6,141.1 14.2,141.1 L14.2,141.1 L36.4,163.3 L37.4,164.3 L37.7,164.6 C38.2,165 38.7,165.2 39.4,165.2 C40.9,165.2 42,164 42.1,162.6 C42.1,162.6 42.1,162.6 42.1,162.5 C42.1,162.5 42.1,162.5 42.1,162.4 L42.1,141.1 L128.7,141.1 C135.3,141.1 140.7,135.7 140.7,129.1 L140.7,14.8 C140.8,8.2 135.4,2.8 128.8,2.8 L128.8,2.8 Z" id="Shape" stroke="url(#linearGradient-1)" stroke-width="4" sketch:type="MSShapeGroup"></path>
        <path d="M66.8,43.4 L57.2,43.4 L44.3,56.3 L44.3,65.9 L66.8,65.9 L66.8,43.4 Z" id="Shape" fill="url(#linearGradient-2)" sketch:type="MSShapeGroup"></path>
        <path d="M66.8,18.4 L44.3,18.4 L44.3,40.9 L53.9,40.9 L66.8,27.9 L66.8,18.4 Z" id="Shape" fill="url(#linearGradient-3)" sketch:type="MSShapeGroup"></path>
        <path d="M41.8,18.4 L32.3,18.4 L19.3,31.3 L19.3,40.9 L41.8,40.9 L41.8,18.4 Z" id="Shape" fill="url(#linearGradient-4)" sketch:type="MSShapeGroup"></path>
        <path d="M19.3,43.4 L19.3,53 L32.3,65.9 L41.8,65.9 L41.8,43.4 L19.3,43.4 Z" id="Shape" fill="url(#linearGradient-5)" sketch:type="MSShapeGroup"></path>
        <path d="M66.8,123.2 L66.8,113.6 L53.8,100.7 L44.3,100.7 L44.3,123.2 L66.8,123.2 Z" id="Shape" fill="url(#linearGradient-6)" sketch:type="MSShapeGroup"></path>
        <path d="M66.7,75.6 L44.2,75.6 L44.2,98.1 L53.8,98.1 L66.7,85.2 L66.7,75.6 Z" id="Shape" fill="url(#linearGradient-7)" sketch:type="MSShapeGroup"></path>
        <path d="M41.8,75.6 L32.2,75.6 L19.3,88.5 L19.3,98.1 L41.8,98.1 L41.8,75.6 Z" id="Shape" fill="url(#linearGradient-8)" sketch:type="MSShapeGroup"></path>
        <path d="M41.8,100.7 L19.3,100.7 L19.3,123.2 L28.9,123.2 L41.8,110.3 L41.8,100.7 Z" id="Shape" fill="url(#linearGradient-9)" sketch:type="MSShapeGroup"></path>
        <path d="M122.8,65.9 L122.8,56.3 L109.9,43.4 L100.3,43.4 L100.3,65.9 L122.8,65.9 Z" id="Shape" fill="url(#linearGradient-10)" sketch:type="MSShapeGroup"></path>
        <path d="M122.7,18.4 L100.2,18.4 L100.2,40.9 L109.8,40.9 L122.7,27.9 L122.7,18.4 Z" id="Shape" fill="url(#linearGradient-11)" sketch:type="MSShapeGroup"></path>
        <path d="M97.8,18.4 L88.2,18.4 L75.3,31.3 L75.3,40.9 L97.8,40.9 L97.8,18.4 Z" id="Shape" fill="url(#linearGradient-12)" sketch:type="MSShapeGroup"></path>
        <path d="M75.3,43.4 L75.3,53 L88.2,65.9 L97.8,65.9 L97.8,43.4 L75.3,43.4 Z" id="Shape" fill="url(#linearGradient-13)" sketch:type="MSShapeGroup"></path>
        <path d="M122.7,123.2 L122.7,113.6 L109.8,100.7 L100.2,100.7 L100.2,123.2 L122.7,123.2 Z" id="Shape" fill="url(#linearGradient-14)" sketch:type="MSShapeGroup"></path>
        <path d="M122.6,75.6 L100.2,75.6 L100.2,98.1 L109.7,98.1 L122.6,85.2 L122.6,75.6 Z" id="Shape" fill="url(#linearGradient-15)" sketch:type="MSShapeGroup"></path>
        <path d="M97.7,75.6 L88.1,75.6 L75.2,88.5 L75.2,98.1 L97.7,98.1 L97.7,75.6 Z" id="Shape" fill="url(#linearGradient-16)" sketch:type="MSShapeGroup"></path>
        <path d="M75.2,100.7 L75.2,110.3 L88.1,123.2 L97.7,123.2 L97.7,100.7 L75.2,100.7 Z" id="Shape" fill="url(#linearGradient-17)" sketch:type="MSShapeGroup"></path>
    </g>
</svg>